<?xml version="1.0" encoding="utf-8"?>
<svg version="1.1" id="Layer_1" xmlns="http://www.w3.org/2000/svg" xmlns:xlink="http://www.w3.org/1999/xlink" x="0px" y="0px" width="512px" height="512px" viewBox="0 0 512 512" enable-background="new 0 0 512 512" xml:space="preserve">
<g>
<g><polygon points="448,384 181.531,384 69.531,128 0,128 0,96 90.469,96 202.469,352 448,352" fill = "#f00"/></g>
<path d="M288,464c0,26.5-21.5,48-48,48s-48-21.5-48-48s21.5-48,48-48S288,437.5,288,464z" fill = "#f00"/>
<path d="M448,464c0,26.5-21.5,48-48,48s-48-21.5-48-48s21.5-48,48-48S448,437.5,448,464z" fill = "#f00"/>
<g>
<path d="M400,0c-61.844,0-112,50.156-112,112s50.156,112,112,112s112-50.156,112-112S461.844,0,400,0z M456.563,145.938l-22.625,22.625L400,134.625l-33.938,33.938l-22.625-22.625L377.375,112l-33.938-33.938l22.625-22.625L400,89.375l33.938-33.938l22.625,22.625L422.625,112L456.563,145.938z" fill = "#f00"/>
</g>
<path d="M400,256c-62.5,0-115.281-40.25-135.156-96H160l64,160h224l36.938-92.313C461.063,245.25,431.844,256,400,256z" fill = "#f00"/>
</g>
</svg>